<svg width="183.197" height="190.07" xmlns="http://www.w3.org/2000/svg" xmlns:xlink="http://www.w3.org/1999/xlink" id="svg1" xml:space="preserve" overflow="hidden"><defs id="defs1"></defs><g id="g1" transform="matrix(3.77953 0 0 3.77953 -233.103 -3163.22)"><path d="M77.2429 887.176C77.1423 887.153 77.0205 887.112 76.9719 887.086 76.9233 887.06 76.7278 887.027 76.5373 887.012 76.2339 886.99 76.1679 886.967 76.0058 886.828 75.8755 886.716 75.7188 886.645 75.4766 886.586 75.2873 886.541 75.0302 886.451 74.9052 886.388 74.7802 886.325 74.5778 886.205 74.4554 886.123 74.3329 886.04 74.2005 885.923 74.161 885.863 74.1216 885.803 73.9877 885.704 73.8634 885.644 73.739 885.584 73.6079 885.522 73.572 885.506 73.536 885.489 73.4602 885.39 73.4037 885.285 73.3471 885.181 73.2303 884.993 73.144 884.868 73.0578 884.744 72.8962 884.578 72.7848 884.501 72.6735 884.423 72.4645 884.239 72.3203 884.092 72.1761 883.945 72.0327 883.824 72.0015 883.824 71.9703 883.824 71.6951 883.576 71.3898 883.274 71.0241 882.911 70.7915 882.637 70.7078 882.471 70.6379 882.331 70.4647 882.095 70.3228 881.945 70.181 881.796 70.0649 881.644 70.0649 881.608 70.0649 881.572 69.9193 881.397 69.7412 881.22 69.5632 881.042 69.3073 880.833 69.1726 880.757 69.0378 880.68 68.7681 880.459 68.5732 880.266 68.3782 880.073 68.1357 879.851 68.0342 879.772 67.9327 879.693 67.7817 879.591 67.6985 879.547 67.6155 879.502 67.4894 879.464 67.4184 879.463 67.34 879.462 67.2056 879.388 67.075 879.275 66.957 879.172 66.7861 879.075 66.6954 879.058 66.5858 879.037 66.4626 878.955 66.329 878.812 66.2182 878.694 66.0861 878.597 66.0355 878.597 65.9849 878.597 65.7964 878.471 65.6166 878.316 65.4369 878.161 65.242 878.019 65.1836 878.001 65.1252 877.982 65.0181 877.919 64.9457 877.86 64.8733 877.8 64.7075 877.712 64.5772 877.664 64.4468 877.615 64.2487 877.491 64.1369 877.388 64.0206 877.281 63.8894 877.094 63.8302 876.952 63.7481 876.754 63.6676 876.66 63.4399 876.497 63.2491 876.36 63.1281 876.231 63.0788 876.113 63.038 876.016 62.9479 875.863 62.8785 875.774 62.809 875.685 62.6443 875.503 62.5124 875.369 62.3805 875.235 62.1932 874.984 62.0962 874.811 61.9991 874.639 61.8605 874.385 61.788 874.249 61.6616 874.01 61.6592 873.992 61.7282 873.817 61.788 873.664 61.7898 873.61 61.7386 873.49 61.7049 873.411 61.6763 873.264 61.6751 873.164 61.6741 873.064 61.7053 872.919 61.7448 872.843 61.7962 872.744 61.8038 872.671 61.7717 872.586 61.7423 872.509 61.7487 872.312 61.7899 872.016 61.8246 871.767 61.8774 871.518 61.9073 871.462 61.9371 871.407 62.0071 871.329 62.0629 871.29 62.146 871.232 62.1587 871.189 62.1331 871.052 62.1104 870.931 62.1291 870.828 62.2029 870.677 62.2586 870.563 62.3238 870.431 62.3481 870.385 62.3724 870.339 62.4111 870.264 62.4339 870.217 62.4568 870.171 62.5219 870.036 62.5786 869.918 62.6352 869.799 62.7298 869.614 62.7886 869.505 62.8476 869.397 63.0104 869.192 63.1507 869.05 63.2909 868.907 63.4175 868.732 63.432 868.661 63.4465 868.59 63.5331 868.444 63.6245 868.337 63.7159 868.23 63.9187 868.045 64.0752 867.924 64.2317 867.804 64.4013 867.624 64.4521 867.524 64.5028 867.425 64.6187 867.278 64.7095 867.198 64.8003 867.119 64.9501 867.039 65.0424 867.022 65.1634 866.999 65.2958 866.904 65.5156 866.68 65.7755 866.416 65.8554 866.363 66.0538 866.327 66.2388 866.293 66.3375 866.235 66.5333 866.044 66.6689 865.913 66.827 865.781 66.8846 865.751 66.9423 865.722 67.0576 865.698 67.1411 865.698 67.2317 865.698 67.4061 865.628 67.5738 865.525L67.8548 865.351 69.1395 865.375C69.8541 865.388 70.5588 865.425 70.7274 865.458 70.9868 865.509 71.056 865.507 71.2069 865.443 71.3039 865.401 71.4995 865.367 71.6416 865.365 71.825 865.365 71.9571 865.33 72.0971 865.248 72.2682 865.148 72.3818 865.128 72.9543 865.098 73.5859 865.064 73.6239 865.056 73.8407 864.913 74.0403 864.78 74.1086 864.762 74.4166 864.759 74.7405 864.755 74.7774 864.744 74.9209 864.606 75.0087 864.521 75.169 864.433 75.2914 864.403 75.4102 864.373 75.5827 864.332 75.675 864.31 75.7673 864.289 75.9355 864.234 76.0487 864.188 76.1825 864.133 76.3209 864.112 76.4441 864.128 76.5935 864.148 76.6665 864.129 76.7896 864.04 76.8756 863.978 77.0242 863.884 77.1202 863.831 77.261 863.753 77.3254 863.744 77.4547 863.781 77.5426 863.806 77.6512 863.815 77.6956 863.801 77.74 863.787 77.8108 863.723 77.853 863.659 77.8952 863.594 77.9888 863.512 78.0611 863.475 78.1334 863.438 78.3867 863.395 78.6241 863.379 78.8615 863.362 79.1636 863.334 79.2954 863.317 79.4274 863.299 79.6755 863.286 79.8469 863.288 80.0183 863.289 80.2557 863.295 80.3743 863.299 80.4931 863.303 80.6872 863.299 80.8059 863.292 80.9246 863.285 81.1835 863.307 81.3813 863.341 81.5791 863.376 81.7916 863.414 81.8533 863.426 81.9151 863.438 82.0425 863.523 82.1364 863.614 82.2974 863.77 82.326 863.78 82.635 863.78 82.937 863.78 82.9806 863.793 83.1866 863.95 83.3096 864.044 83.4815 864.214 83.5686 864.328 83.6556 864.442 83.8311 864.612 83.9585 864.706 84.086 864.799 84.2973 864.995 84.4282 865.14 84.559 865.286 84.7667 865.519 84.8898 865.659 85.0128 865.799 85.1705 865.983 85.2403 866.068 85.31 866.153 85.3874 866.293 85.4122 866.379 85.4369 866.466 85.4574 866.625 85.4574 866.733 85.4574 866.866 85.4871 866.957 85.5499 867.013 85.6006 867.059 85.6553 867.176 85.6707 867.272 85.6864 867.369 85.7116 867.567 85.7269 867.712 85.742 867.857 85.7498 868.029 85.7436 868.095 85.7366 868.161 85.7303 868.304 85.7279 868.412 85.7239 868.552 85.7612 868.667 85.854 868.807 85.9428 868.941 85.9848 869.067 85.9848 869.2 85.9848 869.308 85.9597 869.443 85.929 869.501 85.8983 869.559 85.8477 869.627 85.8166 869.654 85.7855 869.68 85.7342 869.848 85.7031 870.027 85.6717 870.206 85.6098 870.432 85.5654 870.53 85.521 870.629 85.4116 870.822 85.3224 870.961 85.1737 871.192 85.1556 871.261 85.1024 871.809 85.063 872.217 85.0206 872.434 84.969 872.493 84.9274 872.54 84.8555 872.654 84.8091 872.747 84.7627 872.839 84.663 872.985 84.5876 873.072 84.5121 873.159 84.4504 873.284 84.4504 873.351 84.4504 873.418 84.4263 873.519 84.3969 873.577 84.3675 873.635 84.2595 873.76 84.1571 873.856 84.0257 873.979 83.9705 874.071 83.9697 874.168 83.9692 874.243 83.9047 874.435 83.827 874.593 83.7492 874.751 83.6848 874.931 83.6842 874.994 83.6836 875.056 83.6292 875.171 83.5633 875.249 83.4579 875.374 83.4421 875.442 83.433 875.807 83.428 876.036 83.428 876.374 83.4339 876.559 83.4409 876.744 83.4688 876.997 83.4967 877.122 83.5351 877.292 83.5326 877.408 83.4861 877.587 83.4271 877.817 83.4294 877.83 83.5655 878.027L83.7058 878.23 83.7058 878.977C83.7058 879.49 82.1392 850.679 82.1848 850.811 82.2215 850.917 83.8791 880.165 83.9281 880.235 83.9954 880.331 84.0172 880.448 84.0172 880.714 84.0172 880.908 83.9825 881.25 83.9401 881.474 83.8979 881.698 83.846 882 83.8251 882.145 83.8042 882.29 83.7605 882.517 83.7281 882.649 83.6955 882.781 83.6084 883.05 83.5345 883.248 83.4604 883.446 83.3859 883.694 83.3687 883.8 83.3514 883.905 83.3264 884.032 83.3126 884.081 83.2991 884.129 83.1492 884.321 82.9795 884.506 82.8098 884.691 82.6403 884.901 82.6028 884.974 82.5576 885.061 82.4211 885.16 82.1977 885.268 82.0124 885.357 81.8487 885.466 81.8338 885.511 81.8189 885.555 81.7278 885.668 81.6311 885.762 81.5345 885.856 81.3523 885.967 81.2262 886.009 81.1003 886.05 80.9855 886.104 80.9714 886.126 80.9573 886.149 80.8484 886.182 80.7294 886.2 80.6103 886.218 80.4329 886.287 80.3349 886.354 80.2367 886.42 80.0705 886.514 79.965 886.562 79.8595 886.611 79.6764 886.705 79.5581 886.771 79.4399 886.838 79.274 886.893 79.1896 886.893 79.1052 886.893 78.9862 886.911 78.9251 886.934 78.864 886.957 78.7062 886.989 78.5743 887.005 78.4426 887.021 78.2491 887.078 78.1446 887.131 78.016 887.197 77.8689 887.227 77.6891 887.223 77.543 887.22 77.3413 887.199 77.2408 887.176ZM90.9723 878.753C90.838 878.741 90.6965 878.689 90.5974 878.613 90.5097 878.546 90.3742 878.402 90.2963 878.293 90.2185 878.183 90.0956 878.06 90.0238 878.019 89.9519 877.977 89.804 877.809 89.6951 877.643L89.4969 877.342 89.4756 876.423C89.4546 875.517 89.4559 875.503 89.5659 875.369 89.6271 875.294 89.6774 875.191 89.6774 875.139 89.6774 875.088 89.6433 874.993 89.6015 874.93 89.5528 874.855 89.5379 874.774 89.5601 874.704 89.579 874.643 89.6535 874.526 89.7255 874.443 89.7976 874.361 89.8704 874.219 89.8875 874.128 89.905 874.035 90.0105 873.855 90.1295 873.716 90.2454 873.58 90.3766 873.36 90.4208 873.226 90.481 873.045 90.4891 872.95 90.4535 872.848 90.4202 872.752 90.4224 872.683 90.4605 872.618 90.4909 872.566 90.5866 872.418 90.673 872.289 90.7594 872.159 90.8428 871.967 90.8584 871.861 90.8814 871.704 90.9433 871.614 91.1928 871.375 91.3612 871.214 91.4989 871.049 91.4989 871.009 91.4989 870.969 91.5332 870.853 91.5751 870.751 91.6171 870.649 91.7303 870.482 91.8269 870.38 91.9235 870.279 92.0822 870.144 92.1796 870.082 92.2771 870.019 92.4147 869.869 92.4854 869.749 92.5695 869.605 92.7113 869.466 92.8941 869.347 93.0482 869.247 93.2876 869.07 93.4262 868.954 93.5648 868.838 93.7435 868.675 93.8234 868.592 93.9298 868.482 94.0288 868.433 94.1948 868.41 94.3353 868.39 94.5123 868.315 94.6612 868.213 94.8341 868.094 94.9535 868.048 95.0883 868.048 95.1913 868.048 95.3589 868.013 95.461 867.97 95.6012 867.912 95.7168 867.901 95.9344 867.927 96.0927 867.945 96.287 867.954 96.3661 867.946 96.4451 867.939 96.7689 867.931 97.0854 867.93 97.6307 867.929 97.6696 867.935 97.8286 868.052 97.9209 868.121 98.1044 868.226 98.2362 868.286 98.3682 868.346 98.5774 868.426 98.7013 868.463 98.846 868.506 98.9616 868.579 99.0245 868.667 99.0783 868.743 99.1744 868.818 99.2382 868.834 99.3029 868.85 99.4671 869.005 99.6103 869.185 99.7513 869.362 99.8928 869.551 99.9249 869.605 99.9569 869.658 99.9839 869.759 99.9848 869.828 99.9856 869.896 100.048 870.03 100.123 870.125 100.237 870.268 100.265 870.359 100.291 870.665L100.322 871.034 100.082 871.525C99.9505 871.795 99.8426 872.046 99.8426 872.084 99.8426 872.122 99.818 872.177 99.7879 872.207 99.7577 872.237 99.7155 872.377 99.6938 872.517 99.6638 872.711 99.621 872.8 99.5142 872.891 99.437 872.957 99.296 873.114 99.2007 873.239 99.1055 873.365 99.0273 873.494 99.0273 873.527 99.0273 873.56 98.9646 873.716 98.888 873.874 98.8082 874.039 98.6454 874.26 98.5063 874.391 98.373 874.517 98.1939 874.722 98.1081 874.847 98.0224 874.971 97.8327 875.199 97.6866 875.353 97.5405 875.506 97.3409 875.673 97.243 875.724 97.1452 875.775 97.0151 875.816 96.954 875.816 96.8764 875.816 96.7637 875.91 96.581 876.125 96.437 876.294 96.2542 876.464 96.1747 876.503 96.0953 876.541 95.9332 876.656 95.8145 876.759 95.6958 876.862 95.5092 877.003 95.3997 877.074 95.2901 877.144 95.0942 877.309 94.964 877.439 94.7589 877.644 94.6927 877.68 94.4678 877.712 94.325 877.733 94.1451 877.753 94.0682 877.759 93.9711 877.766 93.8848 877.822 93.7862 877.945 93.7081 878.043 93.5873 878.152 93.5179 878.187 93.4485 878.223 93.2517 878.279 93.0807 878.31 92.9095 878.342 92.7156 878.406 92.6497 878.451 92.5838 878.497 92.4197 878.571 92.2851 878.616 92.0967 878.678 92.0099 878.685 91.9074 878.646 91.7989 878.605 91.744 878.614 91.6099 878.693 91.5194 878.746 91.3873 878.786 91.3163 878.781 91.2454 878.776 91.0901 878.764 90.9715 878.754ZM101.554 867.307C101.454 867.271 101.327 867.202 101.273 867.153 101.22 867.104 101.102 866.92 101.013 866.742 100.924 866.565 100.85 866.38 100.85 866.332 100.85 866.28 100.991 866.132 101.195 865.971 101.385 865.821 101.59 865.698 101.649 865.698 101.709 865.698 101.864 865.607 101.993 865.494 102.122 865.382 102.299 865.23 102.387 865.156 102.474 865.081 102.612 864.987 102.693 864.947 102.774 864.906 102.953 864.763 103.09 864.63 103.322 864.405 103.362 864.384 103.651 864.349 103.822 864.329 104.004 864.285 104.057 864.253 104.109 864.22 104.198 864.111 104.254 864.011 104.311 863.91 104.397 863.807 104.447 863.78 104.496 863.754 104.6 863.732 104.677 863.732 104.754 863.732 104.874 863.777 104.944 863.831 105.016 863.888 105.07 863.979 105.07 864.044 105.07 864.106 105.014 864.223 104.946 864.304 104.878 864.385 104.801 864.451 104.775 864.451 104.749 864.451 104.619 864.543 104.486 864.655 104.353 864.767 104.205 864.936 104.157 865.031 104.108 865.126 103.991 865.272 103.896 865.356 103.8 865.439 103.692 865.596 103.653 865.704 103.615 865.812 103.529 865.968 103.462 866.051 103.394 866.134 103.227 866.374 103.09 866.585 102.953 866.795 102.767 867.017 102.677 867.076 102.588 867.136 102.447 867.185 102.364 867.185 102.281 867.185 102.129 867.228 102.025 867.28 101.922 867.333 101.815 867.375 101.787 867.374 101.76 867.373 101.655 867.343 101.554 867.307ZM94.113 863.256C94.0075 863.205 93.8938 863.162 93.8602 863.16 93.8266 863.159 93.7188 863.104 93.6205 863.04 93.5222 862.975 93.3849 862.909 93.3156 862.892 93.2463 862.875 93.1236 862.793 93.0432 862.709 92.9628 862.626 92.8404 862.444 92.7714 862.306 92.7024 862.168 92.6077 862.034 92.5609 862.009 92.5141 861.985 92.4046 861.823 92.3173 861.651 92.1741 861.369 92.1616 861.312 92.1886 861.061 92.2049 860.908 92.2223 860.654 92.2273 860.495 92.2323 860.337 92.2203 860.062 92.1979 859.884 92.1622 859.579 92.1671 859.55 92.2852 859.396 92.3912 859.257 92.4106 859.182 92.4106 858.914 92.4106 858.692 92.4392 858.541 92.507 858.409 92.5781 858.269 92.6003 858.144 92.591 857.931 92.579 857.65 92.584 857.637 92.7704 857.46 92.8759 857.36 93.0335 857.182 93.1206 857.065 93.2078 856.947 93.3544 856.723 93.4466 856.566 93.5388 856.409 93.7324 856.126 93.8768 855.938 94.0212 855.749 94.1982 855.568 94.2701 855.536 94.342 855.503 94.5124 855.403 94.6489 855.313 94.8318 855.192 94.9125 855.101 94.9559 854.969 94.9884 854.87 95.0654 854.709 95.1272 854.611 95.189 854.512 95.3097 854.396 95.3956 854.352 95.4815 854.307 95.8322 853.996 96.175 853.661 96.5179 853.325 96.874 853.013 96.9663 852.966 97.0586 852.92 97.2129 852.811 97.3092 852.725 97.4057 852.639 97.7357 852.401 98.0429 852.196 98.3501 851.992 98.6421 851.767 98.6918 851.697 98.7415 851.628 98.7967 851.512 98.8148 851.44 98.8327 851.369 98.8869 851.289 98.9347 851.263 98.9827 851.238 99.0855 851.217 99.1631 851.217 99.2407 851.217 99.3878 851.182 99.49 851.141 99.5921 851.099 99.7943 851.01 99.9394 850.944 100.084 850.877 100.305 850.758 100.43 850.68 100.644 850.544 100.675 850.538 101.005 850.567 101.296 850.593 101.375 850.583 101.48 850.512 101.549 850.464 101.657 850.39 101.72 850.346 101.782 850.302 101.977 850.253 102.155 850.236 102.332 850.22 102.556 850.173 102.653 850.133 102.77 850.084 102.892 850.07 103.017 850.091 103.12 850.109 103.305 850.199 103.426 850.292 103.548 850.385 103.719 850.491 103.806 850.527 103.893 850.563 104.04 850.593 104.132 850.593 104.26 850.593 104.344 850.636 104.493 850.778 104.599 850.879 104.687 850.999 104.687 851.044 104.687 851.089 104.773 851.282 104.878 851.475 104.984 851.667 105.07 851.872 105.07 851.93 105.07 851.988 105.025 852.124 104.97 852.232 104.897 852.376 104.877 852.481 104.896 852.626 104.91 852.734 104.936 852.902 104.953 853 104.981 853.161 104.966 853.196 104.77 853.407 104.652 853.534 104.531 853.685 104.501 853.743 104.471 853.801 104.447 853.925 104.447 854.021 104.447 854.116 104.401 854.284 104.345 854.395 104.288 854.506 104.204 854.651 104.158 854.717 104.112 854.783 104.039 854.954 103.997 855.097 103.954 855.241 103.919 855.411 103.919 855.476 103.919 855.54 103.825 855.736 103.71 855.91 103.595 856.085 103.485 856.281 103.464 856.347 103.444 856.413 103.339 856.567 103.23 856.689 103.121 856.811 102.954 857.048 102.859 857.216 102.763 857.385 102.669 857.598 102.649 857.69 102.629 857.782 102.552 857.927 102.479 858.011 102.405 858.095 102.33 858.213 102.311 858.274 102.291 858.336 102.173 858.487 102.047 858.611 101.922 858.735 101.762 858.851 101.692 858.869 101.622 858.886 101.535 858.947 101.5 859.003 101.465 859.059 101.423 859.182 101.406 859.277 101.39 859.371 101.328 859.493 101.269 859.547 101.21 859.601 101.072 859.69 100.963 859.745 100.854 859.8 100.713 859.911 100.651 859.991 100.589 860.071 100.467 860.227 100.379 860.337 100.291 860.447 100.168 860.638 100.106 860.761 100.044 860.884 99.9214 861.043 99.8341 861.114 99.7468 861.186 99.5352 861.332 99.3637 861.44 99.1923 861.548 98.9657 861.692 98.8602 861.761 98.7547 861.829 98.4782 862.058 98.2458 862.269 98.0133 862.48 97.7435 862.695 97.6463 862.746 97.5302 862.807 97.3627 862.841 97.1579 862.845 96.9038 862.85 96.8115 862.876 96.6579 862.981 96.5543 863.053 96.4141 863.123 96.3462 863.137 96.2783 863.15 96.1199 863.192 95.9941 863.23 95.8239 863.28 95.7365 863.284 95.6525 863.246 95.576 863.211 95.5107 863.21 95.4497 863.242 95.4003 863.269 95.1223 863.303 94.8322 863.318 94.3745 863.343 94.2794 863.334 94.1129 863.255ZM72.1152 859.475C72.0555 859.412 71.9495 859.329 71.8792 859.293 71.8089 859.256 71.6255 859.213 71.4716 859.197 71.3177 859.181 71.1378 859.13 71.0719 859.084 71.006 859.038 70.8225 858.946 70.6643 858.879 70.5061 858.812 70.3127 858.739 70.2346 858.715 70.1481 858.689 69.9843 858.543 69.815 858.342 69.6269 858.118 69.5374 857.969 69.5374 857.881 69.5374 857.81 69.4294 857.547 69.2975 857.296L69.0576 856.84 69.1079 856.35C69.1355 856.08 69.1981 855.748 69.2471 855.612 69.296 855.476 69.351 855.257 69.3693 855.125 69.3878 854.993 69.3994 854.791 69.3957 854.677 69.3917 854.563 69.4093 854.444 69.4342 854.413 69.4592 854.383 69.5446 854.173 69.6238 853.947 69.7033 853.721 69.8338 853.441 69.9141 853.324 69.9944 853.207 70.2723 852.891 70.5315 852.622 70.8939 852.247 71.0234 852.077 71.0922 851.885 71.1549 851.711 71.2262 851.61 71.3306 851.548 71.4126 851.499 71.6409 851.262 71.8381 851.021 72.0352 850.78 72.3265 850.479 72.4854 850.352 72.6443 850.224 72.8126 850.081 72.8594 850.033 72.9063 849.985 73.0701 849.811 73.2237 849.646 73.3773 849.481 73.5204 849.346 73.5418 849.346 73.5632 849.346 73.7769 849.259 74.0166 849.153 74.2565 849.046 74.5529 848.906 74.6755 848.841 74.7981 848.776 74.9753 848.723 75.0694 848.723 75.1886 848.723 75.2884 848.682 75.398 848.587 75.4846 848.512 75.6586 848.391 75.7846 848.318L76.0137 848.185 76.2491 848.286C76.3786 848.342 76.53 848.387 76.5858 848.387 76.6416 848.387 76.7455 848.417 76.8167 848.454 76.8879 848.49 77.1375 848.549 77.3714 848.584 77.7533 848.643 77.818 848.668 78.0064 848.834 78.1217 848.935 78.2921 849.039 78.3849 849.065 78.5274 849.104 78.5767 849.158 78.702 849.409 78.7834 849.572 78.9051 849.764 78.9721 849.836 79.0863 849.957 79.0903 849.978 79.0367 850.171 79.0054 850.285 78.9854 850.55 78.9925 850.761 78.9995 850.972 78.9855 851.306 78.9637 851.504 78.9409 851.702 78.8708 852.023 78.8078 852.218 78.7448 852.412 78.6617 852.616 78.623 852.672 78.5843 852.727 78.5522 852.827 78.5518 852.894 78.5515 852.96 78.5177 853.112 78.4766 853.231 78.4357 853.349 78.3421 853.511 78.2687 853.59 78.1954 853.669 78.0998 853.787 78.0563 853.853 78.0039 853.931 77.9771 854.072 77.9771 854.271 77.9771 854.534 77.9602 854.589 77.8355 854.731 77.7578 854.82 77.6204 855.031 77.5305 855.2 77.4407 855.37 77.321 855.584 77.2647 855.676 77.2084 855.768 77.1623 855.886 77.1621 855.936 77.162 855.987 77.0325 856.152 76.8743 856.303 76.7139 856.456 76.5865 856.62 76.5865 856.672 76.5865 856.724 76.5056 856.87 76.4067 856.997 76.3079 857.124 76.1352 857.32 76.0231 857.433 75.911 857.546 75.8193 857.661 75.8193 857.688 75.8193 857.715 75.7399 857.826 75.6428 857.933 75.5457 858.041 75.3843 858.17 75.2841 858.222 75.1841 858.273 75.0692 858.378 75.0291 858.455 74.9891 858.533 74.8861 858.649 74.8004 858.714 74.7147 858.779 74.5582 858.855 74.4527 858.884 74.3472 858.913 74.192 858.936 74.1078 858.937 74.0236 858.937 73.9423 858.957 73.927 858.982 73.9117 859.007 73.7756 859.096 73.6245 859.181 73.4734 859.266 73.2905 859.389 73.2182 859.456 73.0991 859.566 73.0453 859.578 72.6551 859.584 72.2561 859.591 72.2153 859.581 72.1153 859.475ZM86.1429 856.681C86.0846 856.658 85.8894 856.64 85.7089 856.641 85.5285 856.641 85.3172 856.626 85.2394 856.607 85.1616 856.588 84.9553 856.478 84.7809 856.364 84.6065 856.249 84.4409 856.156 84.4129 856.156 84.385 856.156 84.2927 856.097 84.2077 856.026 84.1228 855.954 84.0026 855.787 83.9407 855.654 83.8788 855.521 83.8279 855.381 83.8277 855.343 83.8274 855.304 83.7619 855.206 83.6821 855.123 83.6024 855.041 83.4837 854.827 83.4184 854.647 83.3532 854.467 83.2996 854.266 83.2996 854.2 83.2996 854.135 83.346 854.006 83.4023 853.915 83.5005 853.756 83.5014 853.742 83.4263 853.584 83.3744 853.475 83.3477 853.293 83.3477 853.047 83.3477 852.779 83.3722 852.629 83.4355 852.509 83.4839 852.418 83.5571 852.279 83.5983 852.2 83.6393 852.12 83.7208 851.948 83.7789 851.816 83.8371 851.684 83.9782 851.435 84.0925 851.263 84.2069 851.09 84.346 850.908 84.4017 850.858 84.4572 850.807 84.5572 850.658 84.6236 850.526 84.6899 850.394 84.8238 850.194 84.9211 850.082 85.0183 849.969 85.1558 849.805 85.2265 849.717 85.2972 849.629 85.3985 849.442 85.4516 849.302 85.5047 849.163 85.5979 848.975 85.6587 848.886 85.7195 848.797 85.7851 848.724 85.8045 848.723 85.8239 848.723 85.9058 848.592 85.9865 848.432 86.0857 848.236 86.1875 848.11 86.3013 848.043 86.4121 847.977 86.5156 847.852 86.6049 847.674 86.6794 847.526 86.7553 847.335 86.7737 847.251 86.7956 847.149 86.9012 847.01 87.0822 846.843 87.2381 846.699 87.4491 846.558 87.5689 846.517 87.7721 846.448 87.7854 846.431 87.9119 846.086 87.9887 845.876 88.0876 845.696 88.1492 845.654 88.2073 845.615 88.3536 845.481 88.4745 845.358 88.5954 845.235 88.7671 845.046 88.8561 844.938 88.9777 844.791 89.0637 844.735 89.2029 844.713 89.3046 844.696 89.4125 844.653 89.4426 844.617 89.4726 844.581 89.5157 844.551 89.5384 844.551 89.5611 844.551 89.75 844.416 89.9583 844.251 90.1667 844.087 90.3991 843.914 90.4748 843.868 90.5504 843.822 90.7184 843.7 90.8479 843.596 90.9774 843.493 91.1608 843.394 91.2555 843.377 91.3501 843.36 91.5032 843.286 91.5955 843.213 91.6878 843.14 91.8104 843.055 91.8681 843.024 91.9258 842.994 92.0411 842.969 92.1245 842.969 92.2296 842.969 92.3156 842.927 92.4044 842.832 92.5311 842.696 92.5359 842.695 92.8672 842.74 93.0942 842.77 93.2576 842.768 93.3753 842.733 93.4707 842.704 93.6553 842.681 93.7857 842.681 93.9715 842.681 94.0829 842.717 94.3014 842.849 94.4547 842.941 94.6261 843.017 94.6822 843.017 94.7384 843.017 94.8528 843.059 94.9365 843.11 95.0202 843.161 95.1772 843.322 95.2856 843.469 95.394 843.616 95.5007 843.736 95.5227 843.736 95.5447 843.736 95.6628 843.871 95.785 844.035 95.9861 844.307 96.0071 844.36 96.0071 844.6 96.0071 844.773 96.0404 844.926 96.103 845.043 96.1557 845.142 96.1989 845.295 96.1989 845.383 96.1989 845.491 96.1501 845.606 96.0521 845.729L95.9054 845.914 95.9318 846.419C95.9463 846.697 95.9605 847.011 95.9632 847.116 95.9662 847.222 95.947 847.416 95.9212 847.548 95.8953 847.68 95.8476 847.863 95.8153 847.956 95.7829 848.048 95.7267 848.177 95.6907 848.243 95.6546 848.309 95.582 848.45 95.5294 848.555 95.4745 848.665 95.4334 848.845 95.4326 848.977 95.4321 849.104 95.4014 849.265 95.3644 849.337 95.3275 849.408 95.2575 849.501 95.2085 849.544 95.1598 849.586 95.0597 849.635 94.9864 849.653 94.9087 849.671 94.8137 849.749 94.7588 849.839 94.707 849.924 94.6642 850.069 94.6636 850.161 94.663 850.261 94.6075 850.417 94.5268 850.545 94.4349 850.691 94.3176 850.798 94.1629 850.875 94.0143 850.949 93.8821 851.066 93.784 851.21 93.7011 851.332 93.5418 851.519 93.4299 851.626 93.286 851.762 93.1978 851.904 93.1285 852.109 93.04 852.371 92.9883 852.436 92.5934 852.779 92.3529 852.988 91.9491 853.364 91.6959 853.616 91.4428 853.867 91.1995 854.141 91.1552 854.225 91.1091 854.312 91.0039 854.407 90.909 854.446 90.8179 854.484 90.7047 854.581 90.6577 854.66 90.6107 854.74 90.5272 854.825 90.4723 854.85 90.4174 854.875 90.2754 854.941 90.1568 854.998 90.038 855.056 89.7911 855.187 89.6079 855.29 89.4247 855.393 89.209 855.555 89.1284 855.649 89.0104 855.787 88.9306 855.83 88.7182 855.869 88.4973 855.909 88.4285 855.948 88.2947 856.108 88.1578 856.272 88.1076 856.299 87.9456 856.299 87.8336 856.299 87.6446 856.355 87.4821 856.436 87.3312 856.512 87.1214 856.588 87.0159 856.607 86.9104 856.625 86.7378 856.65 86.6323 856.661 86.5268 856.673 86.3973 856.691 86.3445 856.702 86.2919 856.714 86.201 856.703 86.1427 856.681ZM106.964 849.217C106.832 849.207 106.674 849.19 106.611 849.176 106.549 849.162 106.382 849.04 106.24 848.906 106.098 848.771 105.981 848.625 105.981 848.581 105.981 848.536 106.03 848.457 106.089 848.405 106.148 848.353 106.291 848.248 106.406 848.171 106.521 848.094 106.671 847.958 106.739 847.869 106.807 847.78 106.978 847.634 107.119 847.543 107.26 847.453 107.438 847.352 107.514 847.32 107.59 847.287 107.847 847.077 108.086 846.853 108.325 846.629 108.773 846.203 109.081 845.907 109.508 845.495 109.68 845.36 109.809 845.336 109.901 845.319 110.011 845.326 110.053 845.353 110.103 845.384 110.134 845.488 110.144 845.659 110.151 845.801 110.134 846.004 110.103 846.11 110.072 846.215 110.022 846.366 109.993 846.445 109.964 846.524 109.851 846.686 109.741 846.805 109.632 846.924 109.504 847.096 109.457 847.189 109.41 847.281 109.337 847.389 109.295 847.428 109.252 847.468 109.115 847.627 108.99 847.781 108.865 847.936 108.762 848.082 108.762 848.105 108.762 848.128 108.728 848.148 108.685 848.148 108.643 848.148 108.488 848.25 108.341 848.375 108.194 848.501 107.93 848.749 107.755 848.927 107.519 849.167 107.407 849.248 107.32 849.242 107.256 849.237 107.096 849.226 106.964 849.218ZM80.2331 846.648C80.1553 846.609 80.0914 846.511 80.044 846.359 79.9843 846.167 79.9825 846.091 80.0321 845.903 80.0648 845.779 80.1558 845.598 80.234 845.5 80.3122 845.402 80.3898 845.251 80.4063 845.164 80.4229 845.078 80.4746 844.93 80.5216 844.836 80.5685 844.742 80.8412 844.429 81.1276 844.141 81.4956 843.77 81.813 843.507 82.2095 843.245 82.5182 843.04 82.8018 842.873 82.8399 842.873 82.8779 842.873 82.9538 842.93 83.0084 842.999 83.0631 843.069 83.1078 843.185 83.1078 843.256 83.1078 843.328 83.067 843.439 83.0171 843.503 82.9671 843.566 82.8913 843.702 82.8483 843.805 82.8052 843.908 82.6497 844.113 82.5026 844.26 82.2874 844.475 82.1893 844.63 82.0008 845.055 81.8296 845.44 81.716 845.627 81.5796 845.75 81.4769 845.842 81.3685 845.993 81.3388 846.086 81.309 846.178 81.1902 846.356 81.0746 846.481 80.8738 846.699 80.8528 846.709 80.6074 846.708 80.4661 846.708 80.2976 846.681 80.2329 846.648ZM97.1582 841.271C96.9791 841.224 96.9121 841.17 96.7626 840.956 96.6552 840.803 96.5826 840.643 96.5826 840.56 96.5826 840.483 96.6364 840.35 96.7024 840.264 96.7683 840.177 96.8223 840.085 96.8223 840.058 96.8223 840.031 96.8664 839.953 96.9203 839.884 96.9743 839.815 97.1485 839.69 97.3076 839.605 97.4954 839.505 97.6447 839.381 97.7336 839.252 97.8088 839.143 97.9421 838.997 98.0297 838.929 98.1172 838.861 98.259 838.74 98.3447 838.66 98.4626 838.55 98.5006 838.474 98.5006 838.349 98.5006 838.2 98.5569 838.129 99.0623 837.646 99.3712 837.352 99.7071 837.068 99.8087 837.016 99.928 836.955 100.065 836.927 100.194 836.936L100.395 836.951 100.395 837.297C100.395 837.627 100.388 837.651 100.239 837.786 100.153 837.864 100.083 837.957 100.082 837.991 100.082 838.026 100.017 838.149 99.9381 838.265 99.8593 838.381 99.7719 838.562 99.7438 838.666 99.7154 838.772 99.603 838.954 99.4922 839.074 99.3821 839.193 99.2195 839.369 99.1311 839.464 99.0426 839.559 98.932 839.712 98.8852 839.804 98.8383 839.896 98.7842 840.045 98.7649 840.135 98.745 840.227 98.6438 840.387 98.5313 840.503 98.4221 840.616 98.2689 840.788 98.1908 840.886 98.1127 840.983 97.9508 841.125 97.8311 841.2 97.7114 841.275 97.5596 841.335 97.4937 841.333 97.4278 841.33 97.2768 841.303 97.1582 841.271Z" id="path23" stroke-width="0.281295" fill="#CBB299"/></g></svg>