<svg width="542.499" height="531.185" xmlns="http://www.w3.org/2000/svg" xmlns:xlink="http://www.w3.org/1999/xlink" id="svg1" xml:space="preserve" overflow="hidden"><defs id="defs1"></defs><g id="g1" transform="matrix(3.77953 0 0 3.77953 -370.116 -1268.13)"><g id="g3-4-1" transform="matrix(0.293708 0 0 0.301081 -469.172 439.43)"><ellipse cx="2175.17" cy="-111.704" rx="244.352" ry="233.397" id="path1-6-2-9" stroke-width="9.41822" fill="#CCA464"/><path d="M2172.29-215.646C2170.04-215.646 2169.97-213.827 2172.19-212.992 2173.12-212.642 2175.45-210.22 2177.38-207.604 2181.53-201.974 2181.89-197.047 2178.62-190.967 2175.95-186.001 2171.15-180.178 2172.06-183.004 2174.14-189.386 2174.08-192.996 2171.84-197.975 2168.46-205.471 2166.83-204.727 2167.73-196.096 2168.26-190.99 2167.99-187.878 2166.76-184.974 2164.6-179.884 2158.55-173.057 2155.53-172.277 2152.78-171.571 2152.53-172.893 2155.04-174.939 2157.25-176.742 2161.3-184.337 2161.3-186.682 2161.3-189.252 2157.58-196.374 2156.57-195.757 2156.09-195.462 2155.96-193.522 2156.31-191.45 2156.69-189.155 2156.24-186.394 2155.17-184.391 2152.7-179.759 2145.53-173.269 2139.32-170.062 2133.74-167.176 2120.26-163.864 2119.02-165.075 2117.97-166.115 2120.76-174.597 2123.05-177.29 2124.12-178.553 2126.81-180.508 2129.03-181.639 2133.47-183.9 2137.84-188.108 2136.8-189.126 2136.44-189.487 2134.68-188.843 2132.89-187.705L2129.65-185.632 2132.12-189.033C2133.47-190.9 2136.18-193.924 2138.15-195.752 2144.73-201.908 2141.79-202.976 2134.41-197.111 2131.77-195.013 2128.42-192.691 2126.98-191.95 2124.48-190.679 2124.38-190.774 2125.11-193.783 2125.53-195.53 2126.56-198.604 2127.39-200.616 2128.22-202.628 2128.44-204.543 2127.9-204.877 2126.5-205.728 2122.7-200.077 2121.05-194.691 2119.05-188.163 2115.94-181.698 2114.79-181.682 2114.25-181.673 2114.05-182.306 2114.34-183.085 2116.17-187.862 2116.41-189.597 2115.23-189.597 2114.51-189.597 2113.39-188.069 2112.73-186.199 2111.83-183.664 2110.81-182.8 2108.69-182.8 2105.99-182.8 2105.94-182.679 2107.65-180.281 2108.63-178.898 2109.42-176.985 2109.4-176.036 2109.37-174.905 2108.86-175.201 2107.9-176.892 2105.77-180.671 2104.83-178.814 2104.83-170.787 2104.83-166.879 2104.27-163.337 2103.59-162.922 2101.93-161.92 2095.72-167.751 2093.84-172.061 2091.92-176.471 2088.1-179.871 2086.29-178.775 2085.25-178.137 2085.36-177.589 2086.73-176.599 2087.76-175.872 2089.66-172.427 2090.99-168.947 2092.31-165.466 2094.15-162.005 2095.07-161.252 2095.99-160.502 2096.45-159.428 2096.1-158.859 2094.75-156.718 2081.14-150.812 2074.47-149.475 2066.49-147.875 2065.02-146.294 2066.12-140.519 2066.75-137.214 2067.54-136.247 2070.03-135.729 2075.88-134.509 2083.86-130.424 2085.1-128.01 2087.01-124.328 2088.55-112.612 2087.89-106.824 2087.44-102.941 2087.9-100.475 2089.72-96.9689 2091.06-94.3961 2092.67-88.7364 2093.29-84.3997 2094.62-75.1698 2095.66-72.6213 2102.05-62.7364 2107.34-54.5555 2119.73-42.3471 2122.74-42.3471 2124.11-42.3471 2124.44-41.7688 2123.89-40.3645 2121.92-35.3258 2117.51-16.8025 2117.51-13.5617 2117.51-11.4085 2118.73-8.36036 2120.52-6.04011 2123.83-1.74621 2128.39 7.526 2129.46 12.1496 2129.94 14.2429 2129.43 15.9045 2127.72 17.8138 2126.4 19.2993 2124.82 21.8501 2124.23 23.4855 2123.18 26.3837 2122.86 26.47 2110.83 27.0179 2104.05 27.3304 2098.32 27.4326 2098.1 27.2486 2097.89 27.0601 2099.69 25.8746 2102.13 24.6117 2105.85 22.6809 2106.14 22.3086 2103.9 22.2658 2102.42 22.2359 2100.1 22.793 2098.71 23.5036 2096.23 24.7708 2096.23 24.7489 2098.85 21.9492 2100.3 20.3865 2103.29 18.1657 2105.47 17.0057 2107.65 15.8497 2109.44 14.5091 2109.44 14.0296 2109.44 12.3985 2106.53 13.1432 2102.51 15.8146 2097.98 18.8156 2095.58 18.6403 2096.45 15.3653 2097.24 12.3942 2094.82 12.5217 2093.86 15.5056 2093.44 16.7984 2092.86 17.6129 2092.55 17.3132 2092.25 17.0179 2093.07 14.4577 2094.39 11.6279 2097 5.98126 2097.33 4.09273 2095.69 4.09273 2094.34 4.09273 2090.41 9.51666 2089.36 12.8431 2088.52 15.5058 2083.01 20.3952 2081.99 19.3892 2081.66 19.0595 2082.38 18.0749 2083.6 17.1971 2086.51 15.108 2085.03 13.7172 2081.73 15.4468 2079.31 16.7225 2079.33 16.6024 2082.15 12.9893 2083.77 10.9002 2087.21 7.23537 2089.78 4.84655 2092.35 2.45784 2094.47 0.00890836 2094.47-0.599042 2094.47-2.68823 2087.32 2.41452 2081.1 8.94733 2077.68 12.5518 2074.88 15.2077 2074.88 14.8482 2074.88 13.551 2082.93-0.443882 2086.34-5.06316 2088.25-7.65736 2089.53-10.2357 2089.18-10.7922 2088.19-12.3633 2087.12-11.2715 2081.23-2.73084 2078.22 1.64432 2075.43 5.22798 2075.02 5.22798 2074.63 5.22798 2074.46 0.642938 2074.67-4.96517 2074.88-10.5732 2074.59-15.1628 2074.04-15.1628 2073.49-15.1628 2072.43-9.21611 2071.69-1.95139 2070.96 5.31352 2069.9 11.7103 2069.34 12.2626 2068.75 12.8363 2068.01 8.57021 2067.59 2.16145 2066.8-9.9451 2065.1-17.4288 2063.15-17.4288 2062.34-17.4288 2062.16-15.9303 2062.66-13.1818 2063.07-10.8444 2063.63-2.81658 2063.9 4.6581 2064.34 16.3623 2064.27 17.2263 2063.32 10.8862 2061.57-0.938012 2059.65-9.52012 2058.58-10.1665 2057.2-11.0014 2057.37-8.11189 2059.3 2.39362 2060.22 7.37683 2060.98 12.3775 2061.01 13.5034 2061.08 17.0994 2059.08 14.4996 2058.35 10.0645 2056.78 0.402248 2045.39-31.0187 2043.46-31.0187 2042.86-31.0187 2042.73-30.1293 2043.17-29.0377 2046.13-21.7641 2053.01 0.411638 2054.5 7.49246 2058.65 27.1508 2058.29 27.5191 2051.35 10.7203 2046.03-2.1526 2042.42-5.99276 2046.81 5.89135 2048.34 10.0525 2049.41 13.6443 2049.18 13.8713 2048.95 14.0982 2047 12.1206 2044.85 9.475 2039.01 2.26577 2030.91-6.10042 2029.78-6.10042 2027.74-6.10042 2028.94-3.77202 2034.27 2.61525 2040.56 10.1541 2046.47 18.8163 2045.32 18.8163 2044.89 18.8163 2042.17 17.3244 2039.26 15.4965 2033.69 12.0074 2027.62 9.97211 2027.66 11.6158 2027.68 12.1511 2031.35 14.6158 2035.83 17.0946 2040.31 19.5733 2045.06 23.0843 2046.37 24.8951 2047.68 26.7103 2048.28 27.9673 2047.7 27.6933 2033.34 20.9293 2031.09 20.1844 2031.09 22.1965 2031.09 22.8129 2034.16 24.8393 2037.92 26.7058 2041.68 28.5681 2045.01 30.5034 2045.32 31.0086 2046 32.0852 2020.86 34.8551 1990.29 40.8595 2036.74 92.1705 2104.29 121.667 2175.35 121.677 2244.58 121.569 2310.52 93.471 2356.82 44.3512 2348.79 42.3483 2343.73 40.8691 2342.57 37.986 2341.73 35.9354 2336.23 42.9613 2339.54 31.2785 2340.17 29.0651 2339.91 28.725 2338.76 29.7739 2337.96 30.5016 2336.65 30.8539 2335.84 30.5458 2335.03 30.2417 2334.01 30.5623 2333.57 31.2559 2332.99 32.1805 2332.34 32.1644 2331.14 31.1926 2329.75 30.0581 2329.87 29.2827 2331.96 25.9822 2333.3 23.8458 2334.1 21.8085 2333.74 21.4532 2333.37 21.0936 2334.23 19.8641 2335.62 18.7169 2337.72 16.9958 2337.83 16.6241 2336.24 16.5941 2335.18 16.5727 2332.58 17.9379 2330.48 19.629 2327.58 21.9493 2327.18 22.0864 2328.84 20.1898 2332.12 16.444 2330.24 15.8963 2326.76 19.5822 2322.74 23.8505 2322.97 22.065 2327.23 15.9775 2329.17 13.2034 2330.2 10.7335 2329.57 10.3525 2328.95 9.98003 2327.27 11.4687 2325.82 13.6648 2323.49 17.2052 2321.46 18.7982 2321.46 17.0901 2321.46 16.7605 2323.04 13.4049 2324.98 9.63333 2329.53 0.788788 2328.72-1.79349 2323.97 6.36175 2319.77 13.5367 2319.79 13.6057 2322.1 0.129168 2324.56-14.2208 2324.58-14.5929 2322.61-14.5929 2321.44-14.5929 2320.82-13.3179 2320.7-10.6294 2320.45-5.46224 2315.96 20.07 2315.16 20.8577 2314.82 21.1916 2314.55 16.0242 2314.55 9.38004 2314.55-5.17961 2312.47-7.00187 2311.99 7.13818L2311.67 16.9755 2308.64 12.5144C2303.56 5.03986 2293.81-3.89132 2293.81-1.05734 2293.81-0.774772 2296.27 2.08153 2299.28 5.28379 2305.54 11.9406 2308.37 16.2471 2303.77 12.1074 2301.53 10.0953 2300.72 9.81835 2300.72 11.0641 2300.72 11.9973 2302.02 13.9649 2303.61 15.4332 2305.39 17.0771 2306.04 18.3913 2305.28 18.845 2304.45 19.3546 2304.6 21.1487 2305.79 24.5394 2306.75 27.2621 2307.31 29.7058 2307.04 29.9669 2306.77 30.2279 2304.78 29.6126 2302.6 28.5979 2300.43 27.5792 2298.29 26.748 2297.87 26.748 2296.32 26.748 2293.68 30.1607 2294.38 31.2695 2294.83 31.9801 2292.84 32.4122 2289.13 32.4122L2283.18 32.4122 2283.84 28.7306C2285.05 22.0779 2286.74 7.0899 2287.32-1.98153 2287.96-12.0077 2288.76-10.6504 2275.97-21.3487 2268.61-27.5219 2265.69-32.767 2264.54-41.937 2263.88-47.1555 2264.23-48.5631 2267.94-55.5284 2272.13-63.3926 2273.37-71.1621 2271.4-77.2369 2270.36-80.4647 2271.41-80.3755 2276.14-76.8223 2280.11-73.847 2286.88-63.5128 2286.86-60.4689 2286.84-57.9004 2297.67-36.7384 2299.01-36.7085 2299.79-36.6914 2299.91-40.6524 2299.38-48.3882 2298.59-59.6173 2298.37-60.3789 2293.84-67.0829 2288.01-75.7049 2280.97-81.2654 2265.78-89.2452 2248.49-98.3295 2243.76-99.2752 2213.72-99.6434 2185.93-99.9859 2174.61-101.503 2163.93-106.31 2160.42-107.886 2156.98-109.175 2156.28-109.175 2155.57-109.175 2151.76-110.759 2147.79-112.698 2142.99-115.04 2139.77-117.521 2138.14-120.116 2136.78-122.26 2134.38-124.855 2132.77-125.887 2129.15-128.224 2126.73-133.755 2126.73-139.706 2126.73-143.82 2127.11-144.41 2130.68-145.883 2134.26-147.352 2138.25-152.454 2138.25-155.557 2138.25-156.213 2136.3-156.779 2133.92-156.818 2129.87-156.886 2129.78-156.958 2132.49-158.037 2134.07-158.667 2141.08-160.426 2148.04-161.945 2157.98-164.111 2162.04-165.602 2166.84-168.838 2175.17-174.468 2181.7-181.99 2185.58-190.411 2190.39-200.852 2191.29-204.842 2189.75-208.84 2188-213.413 2185.31-213.42 2186.24-208.852 2186.63-206.982 2186.54-205.454 2186.05-205.454 2185.55-205.454 2182.67-207.749 2179.61-210.553 2176.57-213.357 2173.27-215.646 2172.29-215.646ZM2016.74-207.904C2016.25-207.945 2015.75-207.635 2015.31-206.929 2014.52-205.692 2014.02-205.697 2012.46-206.963 2007.95-210.615 2007.91-202.685 2012.4-195.989 2014.85-192.345 2021.79-192.103 2022.74-195.626 2023.1-197.013 2022.72-198.222 2021.81-198.564 2020.96-198.884 2019.93-200.895 2019.51-203.03 2018.94-206.028 2017.84-207.815 2016.75-207.904ZM2050.97-197.525C2049.51-197.526 2045.64-193.622 2045.29-191.554 2045.08-190.274 2044.19-189.457 2043.3-189.699 2040.64-190.417 2035.31-190.27 2034.48-189.453 2033.47-188.485 2038.69-182.978 2040.61-182.978 2041.39-182.978 2041.68-181.343 2042.71-181.261 2043.93-181.166 2045.01-180.791 2046.62-181.448 2048.56-182.243 2048.94-183.423 2049.72-181.547 2050.17-180.471 2050.6-180.535 2051.51-181.814 2052.63-183.397 2052.49-196.269 2051.33-197.393 2051.24-197.483 2051.12-197.525 2050.97-197.525ZM2215.34-39.9575C2216.52-40.024 2217.5-40.015 2218.32-39.9319 2219.41-39.821 2220.2-39.5803 2220.77-39.2142 2222.4-38.1525 2224.67-33.7341 2229.03-23.0916 2230.95-18.4209 2234.12-11.7942 2236.06-8.36945 2240.66-0.278992 2240.61 4.32369 2235.79 17.1172 2232.92 24.7288 2231.38 27.3952 2229.7 27.6435 2228.47 27.8234 2227.22 27.7632 2226.93 27.5063 2226.06 26.74 2190.09 25.6612 2164.6 25.6354L2140.81 25.6143 2140 21.9326C2138.53 15.3484 2139.11 10.4288 2142.05 4.65807 2143.64 1.54569 2146.25-6.86545 2147.84-14.0276 2152.45-34.7905 2150.32-32.8051 2168.98-33.6571 2178.94-34.1109 2190.04-35.4493 2198.6-37.2302 2206.49-38.8725 2211.8-39.7579 2215.34-39.9575ZM2249.99-19.7823 2256.06-15.4674C2259.39-13.0915 2264.04-9.88825 2266.39-8.35132 2271.54-4.98213 2272.61-3.03982 2274.17 5.71495 2275.69 14.2212 2275.68 20.4979 2274.16 25.8962L2272.96 30.1432 2266.38 29.9668C2256.4 29.6929 2244.53 28.5293 2243.73 27.7416 2243.33 27.3563 2245.92 21.3317 2249.46 14.3537 2258.31-3.07864 2258.53-3.74052 2256.33-6.13359 2255.32-7.22099 2253.49-10.7412 2252.24-13.9477ZM2132.09-16.1956C2133.05-16.3197 2133.64-14.2086 2133.64-10.064 2133.64-3.12021 2132.35-2.0883 2130.16-7.28542 2129.07-9.88825 2129.02-11.4159 2129.99-13.5135 2130.8-15.2409 2131.51-16.1211 2132.09-16.1956Z" id="path1-6-3-0-3" stroke-width="9.42302" fill="#171717"/></g></g></svg>